<svg width="24" height="25" viewBox="0 0 24 25" fill="none" xmlns="http://www.w3.org/2000/svg">
<g clip-path="url(#clip0_931_20208)">
<path d="M11 11.6348H0V3.63483C0 2.83918 0.31607 2.07612 0.87868 1.51351C1.44129 0.950897 2.20435 0.634827 3 0.634827L11 0.634827V11.6348ZM2 9.63483H9V2.63483H3C2.73478 2.63483 2.48043 2.74018 2.29289 2.92772C2.10536 3.11526 2 3.36961 2 3.63483V9.63483Z" fill="white"/>
<path d="M23.9999 11.6348H12.9999V0.634827H20.9999C21.7955 0.634827 22.5586 0.950897 23.1212 1.51351C23.6838 2.07612 23.9999 2.83918 23.9999 3.63483V11.6348ZM14.9999 9.63483H21.9999V3.63483C21.9999 3.36961 21.8945 3.11526 21.707 2.92772C21.5194 2.74018 21.2651 2.63483 20.9999 2.63483H14.9999V9.63483Z" fill="white"/>
<path d="M11 24.6348H3C2.20435 24.6348 1.44129 24.3187 0.87868 23.7561C0.31607 23.1935 0 22.4305 0 21.6348L0 13.6348H11V24.6348ZM2 15.6348V21.6348C2 21.9 2.10536 22.1544 2.29289 22.3419C2.48043 22.5295 2.73478 22.6348 3 22.6348H9V15.6348H2Z" fill="white"/>
<path d="M20.9999 24.6348H12.9999V13.6348H23.9999V21.6348C23.9999 22.4305 23.6838 23.1935 23.1212 23.7561C22.5586 24.3187 21.7955 24.6348 20.9999 24.6348ZM14.9999 22.6348H20.9999C21.2651 22.6348 21.5194 22.5295 21.707 22.3419C21.8945 22.1544 21.9999 21.9 21.9999 21.6348V15.6348H14.9999V22.6348Z" fill="white"/>
</g>
<defs>
<clipPath id="clip0_931_20208">
<rect width="24" height="24" fill="white" transform="translate(0 0.634827)"/>
</clipPath>
</defs>
</svg>
