<svg width="42" height="42" viewBox="0 0 42 42" fill="none" xmlns="http://www.w3.org/2000/svg">
<rect y="0.157959" width="41.6842" height="41.6842" rx="20.8421" fill="#AD841F"/>
<g clip-path="url(#clip0_390_30410)">
<path d="M29.8422 10H11.8422C11.0465 10 10.2835 10.3161 9.72084 10.8787C9.15823 11.4413 8.84216 12.2044 8.84216 13V32H32.8422V13C32.8422 12.2044 32.5261 11.4413 31.9635 10.8787C31.4009 10.3161 30.6378 10 29.8422 10ZM11.8422 12H29.8422C30.1074 12 30.3617 12.1054 30.5493 12.2929C30.7368 12.4804 30.8422 12.7348 30.8422 13V16H10.8422V13C10.8422 12.7348 10.9475 12.4804 11.1351 12.2929C11.3226 12.1054 11.5769 12 11.8422 12ZM10.8422 30V18H30.8422V30H10.8422ZM13.8422 21H27.8422V23H13.8422V21ZM13.8422 25H23.8422V27H13.8422V25ZM11.8422 14C11.8422 13.8022 11.9008 13.6089 12.0107 13.4444C12.1206 13.28 12.2768 13.1518 12.4595 13.0761C12.6422 13.0004 12.8433 12.9806 13.0373 13.0192C13.2312 13.0578 13.4094 13.153 13.5493 13.2929C13.6891 13.4327 13.7844 13.6109 13.8229 13.8049C13.8615 13.9989 13.8417 14.2 13.766 14.3827C13.6904 14.5654 13.5622 14.7216 13.3977 14.8315C13.2333 14.9414 13.0399 15 12.8422 15C12.5769 15 12.3226 14.8946 12.1351 14.7071C11.9475 14.5196 11.8422 14.2652 11.8422 14ZM14.8422 14C14.8422 13.8022 14.9008 13.6089 15.0107 13.4444C15.1206 13.28 15.2768 13.1518 15.4595 13.0761C15.6422 13.0004 15.8433 12.9806 16.0373 13.0192C16.2312 13.0578 16.4094 13.153 16.5493 13.2929C16.6891 13.4327 16.7844 13.6109 16.8229 13.8049C16.8615 13.9989 16.8417 14.2 16.766 14.3827C16.6904 14.5654 16.5622 14.7216 16.3977 14.8315C16.2333 14.9414 16.0399 15 15.8422 15C15.5769 15 15.3226 14.8946 15.1351 14.7071C14.9475 14.5196 14.8422 14.2652 14.8422 14ZM17.8422 14C17.8422 13.8022 17.9008 13.6089 18.0107 13.4444C18.1206 13.28 18.2768 13.1518 18.4595 13.0761C18.6422 13.0004 18.8433 12.9806 19.0373 13.0192C19.2312 13.0578 19.4094 13.153 19.5493 13.2929C19.6891 13.4327 19.7844 13.6109 19.8229 13.8049C19.8615 13.9989 19.8417 14.2 19.766 14.3827C19.6904 14.5654 19.5622 14.7216 19.3977 14.8315C19.2333 14.9414 19.0399 15 18.8422 15C18.5769 15 18.3226 14.8946 18.1351 14.7071C17.9475 14.5196 17.8422 14.2652 17.8422 14Z" fill="white"/>
</g>
<defs>
<clipPath id="clip0_390_30410">
<rect width="24" height="24" fill="white" transform="translate(8.84216 9)"/>
</clipPath>
</defs>
</svg>
